:SAMPLES-PER-SECOND 30
:FULLY-SPECIFIED
:DEGREES
186
root  -5.27006 40.9583 -0.289074 0.200562 -86.3551 0.781006
RightUpLeg  3.21855 -2.15191 -1.30353
RightLeg  -2.8981 -28.5152 2.26521
RightFoot  0.0702967 -0.262124 2.62597
RightToes  -3.11842e-008 1.75238e-005 3.56266e-009
Spine  5.1377 -2.42681 -8.71758
Spine1  -3.26103 -4.24957 11.4433
HEad  -22.7403 2.99044 1.02108
LeftShoulder1  1.34654 -3.60014 -11.8334
LeftArm  -24.422 -52.256 -41.8412
LeftForeArm  91.8627 -80.1375 -86.6034
LeftHand  -0.810988 -4.12766 10.1528
RightShoulder  1.84741 4.18917 17.43
RightArm  -29.8386 -18.3363 21.5013
RightForeArm  161.55 63.4322 159.441
RightHand  -1.04307 10.697 -7.90562
LeftUpLeg  1.78436 2.02405 3.81
LeftLeg  -1.56043 13.1706 -1.00107
LeftFoot  0.635727 0.401454 -3.8651
LeftToes  4.78904e-008 1.4679e-008 1.35657e-009
187
root  -5.33948 40.9576 -0.290963 -0.532959 -84.4741 2.50854
RightUpLeg  2.77368 -2.33676 -1.45989
RightLeg  -3.64365 -30.2197 2.84109
RightFoot  0.125477 -0.278588 2.78621
RightToes  -3.11842e-008 1.75238e-005 3.56266e-009
Spine  5.08952 -2.53357 -9.53615
Spine1  -4.4419 -4.39091 12.7533
HEad  -23.86 2.53971 0.936678
LeftShoulder1  1.16005 -2.93333 -10.7733
LeftArm  -17.5773 -55.339 -44.6162
LeftForeArm  84.1964 -79.9345 -81.0234
LeftHand  -0.827472 -3.79064 10.7122
RightShoulder  1.34855 2.67993 15.0049
RightArm  -29.9466 -27.4667 20.828
RightForeArm  162.329 64.0076 159.026
RightHand  -0.957149 10.7725 -7.25568
LeftUpLeg  0.765191 1.69517 3.6251
LeftLeg  -2.0644 11.6616 -1.13419
LeftFoot  0.901168 0.36924 -3.49337
LeftToes  4.78904e-008 1.4679e-008 1.35657e-009
188
root  -5.42118 40.9541 -0.32801 -0.29364 -82.1471 3.00085
RightUpLeg  2.67494 -2.47775 -1.49805
RightLeg  -4.43226 -32.4203 3.45065
RightFoot  0.0821014 -0.286691 2.87484
RightToes  -3.11842e-008 1.75238e-005 3.56266e-009
Spine  5.06448 -2.93205 -9.59382
Spine1  -5.40101 -4.65672 12.7129
HEad  -23.7608 1.62846 1.18476
LeftShoulder1  0.993027 -2.28255 -9.84457
LeftArm  -9.48965 -55.5867 -49.1349
LeftForeArm  89.0085 -80.0362 -85.5003
LeftHand  -0.777137 -3.41406 10.4872
RightShoulder  0.863957 0.864916 12.8691
RightArm  -27.0308 -35.6085 21.2461
RightForeArm  162.578 64.8037 158.334
RightHand  -0.893639 10.6414 -6.85237
LeftUpLeg  -0.406317 1.52226 3.58164
LeftLeg  -1.78131 9.49391 -1.11683
LeftFoot  0.997834 0.382797 -3.59767
LeftToes  4.78904e-008 1.4679e-008 1.35657e-009
189
root  -5.51538 40.9405 -0.36622 -0.924805 -79.7178 3.81195
RightUpLeg  3.07237 -2.68 -1.5644
RightLeg  -4.97452 -34.7178 3.87735
RightFoot  -0.143358 -0.291517 2.94098
RightToes  -3.11842e-008 1.75238e-005 3.56266e-009
Spine  4.92969 -3.55825 -9.01361
Spine1  -5.86106 -5.05177 11.5356
HEad  -22.1181 0.339458 1.78481
LeftShoulder1  1.06841 -2.65777 -10.0168
LeftArm  -2.73032 -51.8916 -52.1729
LeftForeArm  103.188 -80.0857 -97.4449
LeftHand  -0.762078 -3.97892 9.70389
RightShoulder  0.640918 -0.0547101 11.5388
RightArm  -22.2859 -42.4964 22.3466
RightForeArm  160.708 65.8667 157.096
RightHand  -1.02283 10.9322 -7.65831
LeftUpLeg  -0.98861 1.29713 3.41446
LeftLeg  -1.42441 7.26631 -1.00138
LeftFoot  0.888126 0.415004 -3.92354
LeftToes  4.78904e-008 1.4679e-008 1.35657e-009
190
root  -5.61999 40.921 -0.43677 -0.991089 -77.4177 3.5481
RightUpLeg  3.76564 -2.6656 -1.32674
RightLeg  -4.89561 -36.9818 3.80793
RightFoot  -0.476364 -0.305808 3.18064
RightToes  -3.11842e-008 1.75238e-005 3.56266e-009
Spine  4.49768 -4.08587 -9.09107
Spine1  -5.17692 -5.61109 11.5114
HEad  -21.2488 0.0446412 1.66045
LeftShoulder1  1.2606 -3.02726 -12.2076
LeftArm  3.62133 -45.2153 -54.2292
LeftForeArm  122.689 -79.4207 -113.986
LeftHand  -0.805251 -5.08538 9.22554
RightShoulder  0.627128 0.0282507 10.5602
RightArm  -17.8377 -48.0238 24.5877
RightForeArm  160.886 67.1213 155.796
RightHand  -0.990572 10.819 -7.47674
LeftUpLeg  -1.0512 1.26407 3.4457
LeftLeg  -0.973381 5.00054 -0.844392
LeftFoot  0.715503 0.420166 -4.02069
LeftToes  4.78904e-008 1.4679e-008 1.35657e-009
